<svg id="Layer_1" data-name="Layer 1" xmlns="http://www.w3.org/2000/svg" viewBox="0 0 128 128"><defs><style>.cls-1,.cls-2,.cls-3{fill:#fff;}.cls-1{stroke:#919196;}.cls-1,.cls-2{stroke-miterlimit:10;}.cls-2{stroke:#888a8c;}.cls-4{fill:#d2ecf6;}.cls-5{fill:#866241;}.cls-6,.cls-8{fill:#d19d61;}.cls-6{opacity:0.4;}.cls-7{fill:#1c1c1c;}.cls-9{fill:none;}</style></defs><circle class="cls-1" cx="33" cy="72.63" r="23.87"/><circle class="cls-2" cx="92.56" cy="70.9" r="23.87"/><circle class="cls-3" cx="98.01" cy="65.99" r="1.83"/><circle class="cls-3" cx="38.44" cy="67.72" r="1.83"/><path class="cls-4" d="M108.73,57.69s5.09,13.6,1.61,25.44C116.84,67.56,115.08,60.74,108.73,57.69Z"/><path class="cls-4" d="M21.52,62.35s-4.61,16.72-.23,27.11C11.65,73.15,16.5,64.92,21.52,62.35Z"/><circle class="cls-5" cx="33" cy="72.63" r="16.57" transform="translate(-44.79 90.33) rotate(-78.38)"/><circle class="cls-5" cx="92.56" cy="70.9" r="16.57" transform="translate(-21.38 46.15) rotate(-25.2)"/><path class="cls-6" d="M47.91,72.2a14.92,14.92,0,0,1-29.82.87c-.24-8.24,6.89,7.23,15.12,7S47.67,64,47.91,72.2Z"/><path class="cls-6" d="M107.47,70.47a14.92,14.92,0,1,1-29.82.86c-.24-8.23,6.89,7.24,15.13,7S107.23,62.23,107.47,70.47Z"/><circle class="cls-7" cx="33" cy="72.63" r="12.08" transform="translate(-44.84 90.1) rotate(-78.22)"/><circle class="cls-7" cx="92.56" cy="70.9" r="12.08" transform="translate(10.42 153.65) rotate(-82.66)"/><path class="cls-7" d="M80.89,40a40.09,40.09,0,0,1,26.5,4.67,2.74,2.74,0,0,0,3.54-.45h0c.74-1,.36-2.59-1-3.55A46.38,46.38,0,0,0,80,32.36c-4.92.31-8.68,3.41-7.86,5.63h0C73,40.21,77,40.66,80.89,40Z"/><path class="cls-7" d="M42.85,41.13a40,40,0,0,0-26.18,6.21,2.74,2.74,0,0,1-3.56-.25h0a2.59,2.59,0,0,1,.79-3.59A46.32,46.32,0,0,1,43.28,33.43c4.94,0,8.87,2.89,8.18,5.16h0C50.78,40.86,46.8,41.54,42.85,41.13Z"/><path class="cls-8" d="M52.27,30.71s6.11,8.21-.52,10.92C60.41,41.66,57.09,33.09,52.27,30.71Z"/><text/><rect class="cls-9" width="128" height="128"/></svg>